HIERARCHY
ROOT Hips
{
	OFFSET -3.958830 18.904000 13.208200
	CHANNELS 6 Xposition Yposition Zposition Zrotation Yrotation Xrotation 
	JOINT LHipJoint
	{
		OFFSET 0.000000 0.000000 0.000000
		CHANNELS 3 Zrotation Yrotation Xrotation
		JOINT LeftUpLeg
		{
			OFFSET 1.800000 -1.400000 0.085000
			CHANNELS 3 Zrotation Yrotation Xrotation
			JOINT LeftLeg
			{
				OFFSET 2.215000 -6.000000 0.000000
				CHANNELS 3 Zrotation Yrotation Xrotation
				JOINT LeftFoot
				{
					OFFSET 2.500000 -6.900000 0.000000
					CHANNELS 3 Zrotation Yrotation Xrotation
					JOINT LeftToeBase
					{
						OFFSET 0.200000 -0.500000 1.950000
						CHANNELS 3 Zrotation Yrotation Xrotation
						End Site
						{
							OFFSET 0.000000 0.000000 0.000000
						}
					}
				}
			}
		}
	}
	JOINT RHipJoint
	{
		OFFSET 0.000000 0.000000 0.000000
		CHANNELS 3 Zrotation Yrotation Xrotation
		JOINT RightUpLeg
		{
			OFFSET -1.800000 -1.400000 0.085000
			CHANNELS 3 Zrotation Yrotation Xrotation
			JOINT RightLeg
			{
				OFFSET -2.215000 -6.000000 0.000000
				CHANNELS 3 Zrotation Yrotation Xrotation
				JOINT RightFoot
				{
					OFFSET -2.500000 -6.900000 0.000000
					CHANNELS 3 Zrotation Yrotation Xrotation
					JOINT RightToeBase
					{
						OFFSET -0.200000 -0.500000 1.950000
						CHANNELS 3 Zrotation Yrotation Xrotation
						End Site
						{
							OFFSET 0.000000 0.000000 0.000000
						}
					}
				}
			}
		}
	}
	JOINT LowerBack
	{
		OFFSET 0.000000 0.000000 0.000000
		CHANNELS 3 Zrotation Yrotation Xrotation
		JOINT Spine
		{
			OFFSET -0.087000 1.940000 -0.288900
			CHANNELS 3 Zrotation Yrotation Xrotation
			JOINT Spine1
			{
				OFFSET 0.000000 1.950000 0.060000
				CHANNELS 3 Zrotation Yrotation Xrotation
				JOINT Neck
				{
					OFFSET 0.000000 0.000000 0.000000
					CHANNELS 3 Zrotation Yrotation Xrotation
					JOINT Neck1
					{
						OFFSET 0.000000 1.600000 0.340000
						CHANNELS 3 Zrotation Yrotation Xrotation
						JOINT Head
						{
							OFFSET 0.000000 1.667000 -0.240000
							CHANNELS 3 Zrotation Yrotation Xrotation
							End Site
							{
								OFFSET 0.000000 0.000000 0.000000
							}
						}
					}
				}
				JOINT LeftShoulder
				{
					OFFSET 0.000000 0.000000 0.000000
					CHANNELS 3 Zrotation Yrotation Xrotation
					JOINT LeftArm
					{
						OFFSET 2.700000 1.550000 -0.730000
						CHANNELS 3 Zrotation Yrotation Xrotation
						JOINT LeftForeArm
						{
							OFFSET 5.450000 0.000000 0.000000
							CHANNELS 3 Zrotation Yrotation Xrotation
							JOINT LeftHand
							{
								OFFSET 3.450000 0.000000 0.000000
								CHANNELS 3 Zrotation Yrotation Xrotation
								JOINT LeftHandIndex1
								{
									OFFSET 0.750000 0.000000 0.000000
									CHANNELS 3 Zrotation Yrotation Xrotation
									End Site
									{
										OFFSET 0.000000 0.000000 0.000000
									}
								}
							}
						}
					}
				}
				JOINT RightShoulder
				{
					OFFSET 0.000000 0.000000 0.000000
					CHANNELS 3 Zrotation Yrotation Xrotation
					JOINT RightArm
					{
						OFFSET -2.700000 1.550000 -0.730000
						CHANNELS 3 Zrotation Yrotation Xrotation
						JOINT RightForeArm
						{
							OFFSET -5.450000 0.000000 0.000000
							CHANNELS 3 Zrotation Yrotation Xrotation
							JOINT RightHand
							{
								OFFSET -3.450000 0.000000 0.000000
								CHANNELS 3 Zrotation Yrotation Xrotation
								JOINT RightHandIndex1
								{
									OFFSET -0.750000 0.000000 0.000000
									CHANNELS 3 Zrotation Yrotation Xrotation
									End Site
									{
										OFFSET 0.000000 0.000000 0.000000
									}
								}
							}
						}
					}
				}
			}
		}
	}
}
MOTION
Frames: 9
Frame Time: 0.016667
-0.315570 16.782580 -6.144930 -5.477207 -0.873982 -21.724451 -15.499445 13.934496 3.406860 1.566311 -6.563786 -13.067493 -3.363398 9.662943 46.745094 0.509043 8.102373 1.406696 0.656540 0.715460 0.580600 17.961576 -9.612227 3.809048 18.498157 3.887124 -10.798572 -18.245850 1.754263 49.006546 -1.462674 -6.747242 1.897414 0.395780 -0.394310 0.027500 -2.597127 -4.448580 -8.306555 -6.304956 1.509992 52.152056 1.840629 3.326451 -7.328900 1.384469 -1.699297 -7.608166 -15.293613 14.205356 77.231326 5.131870 8.382470 -10.142290 -51.505730 -13.199504 -0.825683 -32.455656 -15.263617 -6.046079 -8.140943 -16.872273 -0.116123 -3.278123 2.913987 0.568350 -0.319240 0.494400 0.001910 50.213651 15.267202 7.688728 21.956361 -0.021090 -6.713864 12.153500 11.620571 0.073582 2.209805 -1.122242 0.043450 0.175430 -0.197630 -0.205280 
-0.304010 16.763340 -6.052530 -5.151160 1.043749 -21.629514 -15.476740 13.987050 3.441047 0.033466 -6.471569 -12.124885 -1.964214 8.799296 46.471985 0.483630 7.876608 1.485892 0.657450 0.713930 0.588450 17.956401 -9.784229 3.708195 17.210179 3.494551 -10.253917 -17.741210 1.408087 48.495418 -1.437792 -6.661007 1.920215 0.389310 -0.404970 0.033890 -2.662911 -4.285356 -8.273171 -4.678815 1.261803 52.074984 0.780713 3.502380 -7.592978 1.938499 -0.918687 -7.646376 -12.695566 12.110799 78.913347 5.374910 7.772350 -9.881360 -52.048933 -13.207284 -0.930058 -32.346472 -14.090420 -6.200882 -9.013235 -16.132562 -0.067336 -3.265548 2.909216 0.574450 -0.322610 0.504330 -0.003250 49.603928 14.899822 7.431478 23.189214 -1.672500 -6.683810 13.955487 11.349455 0.059054 2.189515 -1.125663 0.050240 0.165180 -0.199950 -0.207940 
-0.317820 16.744990 -5.938470 -4.693548 2.644682 -20.762412 -15.478406 13.983768 3.474792 -1.456063 -6.298636 -12.055226 -0.344169 7.996271 46.540949 0.452046 7.699486 1.536073 0.635760 0.679110 0.598240 17.943407 -9.887964 3.647540 16.111615 3.584431 -10.029127 -15.465148 0.369330 48.395919 -1.384926 -6.540806 1.952833 0.367240 -0.424290 0.032870 -2.682500 -4.087641 -8.291859 -3.776326 1.772431 50.116634 -0.075132 4.235076 -7.057336 2.565107 0.534674 -8.456400 -8.102726 8.679265 81.588327 5.458980 7.290220 -8.852530 -51.859537 -14.039640 -0.383076 -32.492648 -12.382526 -6.400763 -9.444566 -15.886217 -0.064109 -3.251457 2.899226 0.589190 -0.322960 0.508160 -0.027140 48.162181 15.291029 7.468878 25.702538 -3.309095 -7.332214 14.670880 13.194883 0.219276 2.181224 -1.164287 0.043370 0.146170 -0.191420 -0.228260 
-0.355140 16.772510 -5.838670 -5.445218 6.075104 -20.219515 -15.546650 14.112378 3.449547 -2.280347 -6.199229 -12.286141 2.773901 6.372455 46.953496 0.402967 7.471603 1.601446 0.626530 0.659500 0.619690 17.866524 -9.853846 3.635500 15.318000 3.856003 -10.216513 -11.384628 -1.679552 48.594476 -1.345823 -6.441811 1.971141 0.351430 -0.451410 0.033640 -2.553744 -4.309779 -8.299563 -2.848186 2.071977 48.974646 0.354393 5.169131 -6.795416 3.323033 2.288912 -9.024411 -2.868955 4.216131 83.837649 5.713960 6.246070 -8.435210 -52.059234 -14.729068 -0.152981 -33.288396 -11.229424 -6.297089 -10.243364 -15.211964 -0.045129 -3.242399 2.874921 0.609330 -0.334250 0.526050 -0.047050 47.095334 15.359660 7.788762 27.948853 -5.673513 -8.946304 13.917208 17.249559 0.454974 2.137801 -1.257345 0.042690 0.134920 -0.190520 -0.245900 
-0.399450 16.814600 -5.781100 -5.744469 6.431640 -20.408653 -15.588441 14.227210 3.396761 -2.149905 -5.987395 -12.141089 4.005182 5.851514 47.283993 0.420913 7.449332 1.613492 0.637170 0.675010 0.618710 17.823125 -9.777850 3.655328 15.120193 4.049408 -9.913603 -9.186379 -2.790840 48.843530 -1.351438 -6.480299 1.964010 0.350100 -0.456330 0.036410 -2.442664 -4.596818 -8.295197 -2.826860 2.187625 48.977053 1.294785 5.445968 -6.804049 3.221874 1.831836 -8.900148 -4.485180 4.736625 83.077669 5.062630 5.482210 -8.814710 -51.233614 -14.244802 -0.618850 -33.110806 -10.337051 -6.165846 -10.825158 -14.995599 0.018471 -3.236761 2.880814 0.596940 -0.340650 0.529630 -0.037780 46.569195 15.262991 7.867498 27.893713 -6.342419 -9.153822 14.953895 17.661152 0.533240 2.120393 -1.288875 0.061260 0.132380 -0.200220 -0.231400 
-0.446660 16.852210 -5.718850 -5.808928 5.824292 -20.267065 -15.656249 14.345024 3.363776 -1.959412 -5.821533 -12.273049 4.713846 5.635480 47.648428 0.435478 7.483557 1.599368 0.636040 0.676600 0.615780 17.761589 -9.668473 3.653723 15.072672 4.040591 -9.227164 -7.791070 -3.368150 48.073431 -1.326868 -6.388862 1.996893 0.349390 -0.456750 0.035900 -2.247662 -4.987025 -8.290438 -4.041661 2.686821 47.946095 2.839343 5.636263 -6.471319 3.005362 1.608407 -8.700997 -5.378062 5.812264 82.155767 5.149270 5.966700 -8.955010 -50.201101 -13.624734 -0.760441 -33.427685 -9.297654 -6.191422 -11.072516 -15.370636 0.056509 -3.235608 2.900485 0.591840 -0.340010 0.527400 -0.037190 46.133318 14.912114 7.820808 27.620569 -6.764303 -9.696259 15.579064 19.248108 0.719055 2.089654 -1.348131 0.063310 0.126200 -0.202530 -0.230230 
-0.481150 16.870860 -5.670920 -6.205103 4.824981 -20.132330 -15.703416 14.450585 3.303891 -1.373969 -5.663375 -12.498973 5.475688 5.401761 48.116308 0.432325 7.550592 1.578921 0.637990 0.674090 0.623860 17.718489 -9.584660 3.654218 14.870810 4.125600 -8.788160 -6.050328 -4.205010 47.857365 -1.325278 -6.406681 1.992516 0.353990 -0.459760 0.039340 -2.101404 -5.294573 -8.280656 -4.374383 2.800338 46.988268 3.766491 5.854388 -6.261343 2.906902 1.346858 -7.514413 -6.189509 6.438924 79.758578 4.200630 6.394250 -10.122460 -49.472294 -11.850045 -1.597279 -33.786107 -8.829729 -6.427413 -12.244248 -16.965416 0.306531 -3.241864 2.926198 0.590300 -0.335550 0.522250 -0.039190 45.598144 13.318338 7.308102 28.060689 -7.251719 -10.920440 15.257141 22.491911 0.937856 2.046498 -1.442448 0.058420 0.126240 -0.202260 -0.239280 
-0.491980 16.889710 -5.617670 -6.399720 2.659952 -19.930395 -15.719562 14.565859 3.210377 -0.920908 -5.128620 -11.755970 5.672031 5.352966 47.093868 0.416475 7.434465 1.646795 0.622420 0.654890 0.585580 17.695267 -9.563794 3.668313 14.725725 4.164713 -8.396778 -5.263730 -4.564766 47.859655 -1.309262 -6.462469 1.994296 0.355840 -0.415000 0.028700 -2.008037 -5.503733 -8.243543 -4.587891 2.417844 45.593726 4.361600 5.498007 -6.209961 2.476310 -0.048863 -6.689955 -9.991576 8.859070 77.614138 3.880260 6.030320 -9.482780 -49.057466 -9.869441 -2.231032 -33.814733 -7.640748 -6.913936 -13.438447 -19.009424 0.609454 -3.240330 2.975561 0.557300 -0.314130 0.480690 -0.018260 45.962478 12.256736 6.751287 26.404404 -6.097878 -9.486742 16.706881 18.974686 0.805571 2.060407 -1.386024 0.045790 0.144880 -0.193450 -0.220670 
-0.494310 16.899590 -5.578460 -6.648713 -0.814052 -19.197924 -15.734568 14.631187 3.112626 -0.147798 -4.629810 -11.635138 5.184198 5.753144 46.364065 0.412992 7.395358 1.681179 0.614330 0.648700 0.550900 17.689512 -9.479195 3.719585 15.020802 4.614301 -8.813859 -5.148852 -4.566202 48.822960 -1.323214 -6.602596 1.965816 0.359780 -0.376900 0.019830 -1.909992 -5.721123 -8.232119 -4.602426 1.977319 43.675797 5.015064 5.064109 -5.990140 1.933681 -1.674128 -6.168907 -14.533927 11.980029 74.796558 3.512030 6.115640 -9.201730 -47.969986 -7.851651 -2.778399 -34.865842 -6.526816 -7.014437 -13.893959 -19.696598 0.678353 -3.258022 2.992541 0.529380 -0.299010 0.449300 0.005500 45.805390 11.300912 6.203998 25.122631 -5.120299 -8.553524 17.721478 16.723097 0.684082 2.073617 -1.345992 0.038800 0.162440 -0.189790 -0.200330 
